<svg xmlns="http://www.w3.org/2000/svg" width="1680" height="920" viewBox="0 0 1680 920" role="img" aria-labelledby="title desc">
  <title id="title">Self-Evolving Loop</title>
  <desc id="desc">Alius self-evolving loop from goal input to plan generation, Loop Engine execution, CoreEvent trace, review decision, project memory, and configuration workflow adjustment.</desc>
  <defs>
    <pattern id="paper" width="18" height="18" patternUnits="userSpaceOnUse">
      <rect width="18" height="18" fill="#fbf6ea"/>
      <path d="M0 17.5H18M17.5 0V18" stroke="#e8dcc8" stroke-width="0.5" opacity="0.22"/>
    </pattern>
    <filter id="softShadow" x="-20%" y="-20%" width="140%" height="140%">
      <feDropShadow dx="4" dy="7" stdDeviation="0.8" flood-color="#101010" flood-opacity="0.18"/>
    </filter>
    <marker id="arrow" markerWidth="14" markerHeight="14" refX="11" refY="7" orient="auto" markerUnits="strokeWidth">
      <path d="M2 2L12 7L2 12" fill="none" stroke="#181818" stroke-width="2.2" stroke-linecap="round" stroke-linejoin="round"/>
    </marker>
    <style>
      .title-cn { font-family: "Kaiti SC", "STKaiti", "PingFang SC", "Microsoft YaHei", sans-serif; font-size: 76px; font-weight: 800; fill: #171717; letter-spacing: 2px; }
      .title-en { font-family: "Bradley Hand", "Comic Sans MS", "PingFang SC", sans-serif; font-size: 34px; font-weight: 700; fill: #666; }
      .label { font-family: "Kaiti SC", "STKaiti", "PingFang SC", "Microsoft YaHei", sans-serif; font-size: 28px; font-weight: 700; fill: #171717; }
      .label-small { font-family: "Kaiti SC", "STKaiti", "PingFang SC", "Microsoft YaHei", sans-serif; font-size: 24px; font-weight: 700; fill: #171717; }
      .ink { stroke: #171717; stroke-width: 4; fill: none; stroke-linecap: round; stroke-linejoin: round; }
      .sketch { stroke: #171717; stroke-width: 3; fill: none; stroke-linecap: round; stroke-linejoin: round; opacity: 0.55; }
      .card { fill: #fffdf7; stroke: #171717; stroke-width: 3.4; filter: url(#softShadow); }
      .card-ghost { fill: none; stroke: #171717; stroke-width: 1.7; opacity: 0.42; }
      .accent { fill: #cfeef7; stroke: #171717; stroke-width: 3; }
      .muted { stroke: #7aaec0; stroke-width: 5; fill: none; stroke-linecap: round; stroke-linejoin: round; }
      .thin { stroke: #171717; stroke-width: 2.5; fill: none; stroke-linecap: round; stroke-linejoin: round; }
    </style>
  </defs>

  <rect width="1680" height="920" fill="url(#paper)"/>

  <text x="840" y="98" text-anchor="middle" class="title-cn">Self-Evolving Loop</text>
  <text x="840" y="146" text-anchor="middle" class="title-en"></text>
  <path d="M550 118C640 137 973 138 1126 119" class="sketch"/>
  <path d="M505 80l42 14M1164 92l46-20M492 126l40-6M1195 130l36 8" class="sketch"/>

  <path d="M225 470H263" class="ink" marker-end="url(#arrow)"/>
  <path d="M465 470H503" class="ink" marker-end="url(#arrow)"/>
  <path d="M705 470H743" class="ink" marker-end="url(#arrow)"/>
  <path d="M945 470H983" class="ink" marker-end="url(#arrow)"/>
  <path d="M1185 470H1223" class="ink" marker-end="url(#arrow)"/>
  <path d="M1425 470H1463" class="ink" marker-end="url(#arrow)"/>
  <path d="M1568 638C1570 730 1506 800 1392 828C1180 879 514 874 258 835C146 818 124 749 127 646" class="ink" marker-end="url(#arrow)"/>

  <g transform="translate(35 315)">
    <rect x="0" y="0" width="185" height="318" rx="22" class="card"/>
    <rect x="5" y="6" width="175" height="305" rx="20" class="card-ghost"/>
    <circle cx="92.5" cy="42" r="24" class="accent"/>
    <text x="92.5" y="52" text-anchor="middle" class="label">1</text>
    <text x="92.5" y="110" text-anchor="middle" class="label">Goal Input</text>
    <circle cx="92" cy="195" r="62" fill="#f7fbfc" stroke="#171717" stroke-width="3"/>
    <circle cx="92" cy="195" r="42" class="muted"/>
    <circle cx="92" cy="195" r="21" class="thin"/>
    <circle cx="92" cy="195" r="7" fill="#7aaec0" stroke="#171717" stroke-width="2"/>
    <path d="M64 223L122 165" class="ink"/>
    <path d="M121 164l20-24M121 164l28-6M121 164l9-29" class="thin"/>
    <path d="M38 170l-14-10M41 222l-17 10M154 217l14 9" class="sketch"/>
  </g>

  <g transform="translate(275 315)">
    <rect x="0" y="0" width="185" height="318" rx="22" class="card"/>
    <rect x="5" y="6" width="175" height="305" rx="20" class="card-ghost"/>
    <circle cx="92.5" cy="42" r="24" class="accent"/>
    <text x="92.5" y="52" text-anchor="middle" class="label">2</text>
    <text x="92.5" y="101" text-anchor="middle" class="label-small">Plan</text>
    <text x="92.5" y="132" text-anchor="middle" class="label-small">Generation</text>
    <rect x="55" y="145" width="78" height="120" rx="8" fill="#fffdf7" stroke="#171717" stroke-width="4"/>
    <path d="M72 146h45l-5-20H77z" class="accent"/>
    <path d="M74 180l9 9l20-24M74 211l9 9l20-24M74 242l9 9l20-24" class="muted"/>
    <path d="M112 183h28M112 214h28M112 245h28" class="thin"/>
  </g>

  <g transform="translate(515 315)">
    <rect x="0" y="0" width="185" height="318" rx="22" class="card"/>
    <rect x="5" y="6" width="175" height="305" rx="20" class="card-ghost"/>
    <circle cx="92.5" cy="42" r="24" class="accent"/>
    <text x="92.5" y="52" text-anchor="middle" class="label">3</text>
    <text x="92.5" y="103" text-anchor="middle" class="label-small">Loop Engine</text>
    <text x="92.5" y="134" text-anchor="middle" class="label-small">Execution</text>
    <circle cx="82" cy="200" r="37" fill="#fffdf7" stroke="#171717" stroke-width="5"/>
    <circle cx="82" cy="200" r="16" fill="#fbf6ea" stroke="#171717" stroke-width="4"/>
    <path d="M82 151v22M82 227v22M33 200h22M109 200h22M48 166l16 16M100 218l16 16M116 166l-16 16M64 218l-16 16" class="thin"/>
    <circle cx="127" cy="235" r="25" fill="#fffdf7" stroke="#171717" stroke-width="4"/>
    <circle cx="127" cy="235" r="10" fill="#fbf6ea" stroke="#171717" stroke-width="3"/>
    <path d="M44 247c-14-18-17-39-7-60M146 177c13 15 19 31 17 51" class="sketch"/>
  </g>

  <g transform="translate(755 315)">
    <rect x="0" y="0" width="185" height="318" rx="22" class="card"/>
    <rect x="5" y="6" width="175" height="305" rx="20" class="card-ghost"/>
    <circle cx="92.5" cy="42" r="24" class="accent"/>
    <text x="92.5" y="52" text-anchor="middle" class="label">4</text>
    <text x="92.5" y="103" text-anchor="middle" class="label-small">CoreEvent /</text>
    <text x="92.5" y="134" text-anchor="middle" class="label-small">Trace</text>
    <path d="M56 154h86l30 30v86H56z" fill="#fffdf7" stroke="#171717" stroke-width="4"/>
    <path d="M142 154v30h30" fill="#cfeef7" stroke="#171717" stroke-width="3"/>
    <circle cx="76" cy="196" r="4" fill="#7aaec0" stroke="#171717" stroke-width="1.5"/>
    <circle cx="76" cy="223" r="4" fill="#7aaec0" stroke="#171717" stroke-width="1.5"/>
    <circle cx="76" cy="250" r="4" fill="#7aaec0" stroke="#171717" stroke-width="1.5"/>
    <path d="M92 196h54M92 223h54M92 250h54" class="thin"/>
  </g>

  <g transform="translate(995 315)">
    <rect x="0" y="0" width="185" height="318" rx="22" class="card"/>
    <rect x="5" y="6" width="175" height="305" rx="20" class="card-ghost"/>
    <circle cx="92.5" cy="42" r="24" class="accent"/>
    <text x="92.5" y="52" text-anchor="middle" class="label">5</text>
    <text x="92.5" y="101" text-anchor="middle" class="label-small">Review /</text>
    <text x="92.5" y="132" text-anchor="middle" class="label-small">Decision</text>
    <circle cx="70" cy="205" r="45" fill="#fffdf7" stroke="#171717" stroke-width="5"/>
    <circle cx="70" cy="205" r="28" fill="#f7fbfc" stroke="#7aaec0" stroke-width="5"/>
    <path d="M52 207l13 14l27-34" class="muted"/>
    <path d="M98 236l38 39" class="ink"/>
    <circle cx="140" cy="169" r="24" fill="#fffdf7" stroke="#171717" stroke-width="3"/>
    <path d="M128 169l9 10l18-21" class="muted"/>
    <circle cx="147" cy="227" r="22" fill="#fffdf7" stroke="#171717" stroke-width="3"/>
    <path d="M137 217l20 20M157 217l-20 20" class="thin"/>
    <path d="M105 190l22-12M111 217l20 9" class="sketch"/>
  </g>

  <g transform="translate(1235 315)">
    <rect x="0" y="0" width="185" height="318" rx="22" class="card"/>
    <rect x="5" y="6" width="175" height="305" rx="20" class="card-ghost"/>
    <circle cx="92.5" cy="42" r="24" class="accent"/>
    <text x="92.5" y="52" text-anchor="middle" class="label">6</text>
    <text x="92.5" y="101" text-anchor="middle" class="label-small">Project</text>
    <text x="92.5" y="132" text-anchor="middle" class="label-small">Memory</text>
    <rect x="56" y="157" width="88" height="106" rx="9" fill="#fffdf7" stroke="#171717" stroke-width="4"/>
    <path d="M66 169h68M66 254h68" class="thin"/>
    <path d="M77 263v30l18-13l18 13v-30" fill="#cfeef7" stroke="#171717" stroke-width="3"/>
    <path d="M72 215c-10-20 8-38 28-28c8-20 34-12 35 6c18 2 24 25 6 36c-8 14-33 12-39-1c-12 8-26 1-30-13z" fill="#fffdf7" stroke="#171717" stroke-width="3"/>
    <path d="M101 188v42M84 208h49M88 195c11 7 16 19 11 33M123 194c-12 10-14 25-5 35" class="sketch"/>
  </g>

  <g transform="translate(1475 315)">
    <rect x="0" y="0" width="185" height="318" rx="22" class="card"/>
    <rect x="5" y="6" width="175" height="305" rx="20" class="card-ghost"/>
    <circle cx="92.5" cy="42" r="24" class="accent"/>
    <text x="92.5" y="52" text-anchor="middle" class="label">7</text>
    <text x="92.5" y="101" text-anchor="middle" class="label-small">Config / Soul /</text>
    <text x="92.5" y="132" text-anchor="middle" class="label-small">Workflow Tuning</text>
    <path d="M48 184h98M48 225h98M48 266h98" class="thin"/>
    <circle cx="82" cy="184" r="13" class="accent"/>
    <circle cx="120" cy="225" r="13" fill="#fffdf7" stroke="#171717" stroke-width="3"/>
    <circle cx="74" cy="266" r="13" class="accent"/>
  </g>
</svg>
